<mxfile host="app.diagrams.net" modified="2023-07-05T08:24:16.228Z" agent="Mozilla/5.0 (Macintosh; Intel Mac OS X 10_15_7) AppleWebKit/537.36 (KHTML, like Gecko) Chrome/114.0.0.0 Safari/537.36" etag="ct4Dhke_RrJLloZMRwqQ" version="21.5.2" type="github">
  <diagram name="第 1 页" id="Tuvks7pTm9T045FGBU0S">
    <mxGraphModel dx="1043" dy="566" grid="1" gridSize="10" guides="1" tooltips="1" connect="1" arrows="1" fold="1" page="1" pageScale="1" pageWidth="827" pageHeight="1169" math="0" shadow="0">
      <root>
        <mxCell id="0" />
        <mxCell id="1" parent="0" />
        <mxCell id="_qyNYfjBGTc0N9jYAM-_-3" value="" style="edgeStyle=orthogonalEdgeStyle;rounded=0;orthogonalLoop=1;jettySize=auto;html=1;" edge="1" parent="1" source="_qyNYfjBGTc0N9jYAM-_-1" target="_qyNYfjBGTc0N9jYAM-_-2">
          <mxGeometry relative="1" as="geometry" />
        </mxCell>
        <mxCell id="_qyNYfjBGTc0N9jYAM-_-1" value="do_pretrain.sh" style="rounded=0;whiteSpace=wrap;html=1;" vertex="1" parent="1">
          <mxGeometry x="80" y="120" width="160" height="60" as="geometry" />
        </mxCell>
        <mxCell id="_qyNYfjBGTc0N9jYAM-_-5" value="" style="edgeStyle=orthogonalEdgeStyle;rounded=0;orthogonalLoop=1;jettySize=auto;html=1;" edge="1" parent="1" source="_qyNYfjBGTc0N9jYAM-_-2" target="_qyNYfjBGTc0N9jYAM-_-4">
          <mxGeometry relative="1" as="geometry" />
        </mxCell>
        <mxCell id="_qyNYfjBGTc0N9jYAM-_-6" value="" style="edgeStyle=orthogonalEdgeStyle;rounded=0;orthogonalLoop=1;jettySize=auto;html=1;" edge="1" parent="1" source="_qyNYfjBGTc0N9jYAM-_-2" target="_qyNYfjBGTc0N9jYAM-_-4">
          <mxGeometry relative="1" as="geometry" />
        </mxCell>
        <mxCell id="_qyNYfjBGTc0N9jYAM-_-8" value="" style="edgeStyle=orthogonalEdgeStyle;rounded=0;orthogonalLoop=1;jettySize=auto;html=1;" edge="1" parent="1" source="_qyNYfjBGTc0N9jYAM-_-2" target="_qyNYfjBGTc0N9jYAM-_-7">
          <mxGeometry relative="1" as="geometry" />
        </mxCell>
        <mxCell id="_qyNYfjBGTc0N9jYAM-_-2" value="solutions/antllm/examples/pretrain/glm/&lt;br&gt;pretrain_glm.py" style="rounded=0;whiteSpace=wrap;html=1;" vertex="1" parent="1">
          <mxGeometry x="320" y="120" width="240" height="60" as="geometry" />
        </mxCell>
        <mxCell id="_qyNYfjBGTc0N9jYAM-_-4" value="gpt_options:&amp;nbsp;experiments/experimental/glm/config/ds_block_10B.sh&lt;br&gt;experiments/experimental/glm/config/config_block_10B.json" style="rounded=1;whiteSpace=wrap;html=1;" vertex="1" parent="1">
          <mxGeometry x="240" y="180" width="400" height="80" as="geometry" />
        </mxCell>
        <mxCell id="_qyNYfjBGTc0N9jYAM-_-10" value="" style="edgeStyle=orthogonalEdgeStyle;rounded=0;orthogonalLoop=1;jettySize=auto;html=1;" edge="1" parent="1" source="_qyNYfjBGTc0N9jYAM-_-7" target="_qyNYfjBGTc0N9jYAM-_-9">
          <mxGeometry relative="1" as="geometry" />
        </mxCell>
        <mxCell id="_qyNYfjBGTc0N9jYAM-_-7" value="solutions/antllm/antllm/data/&lt;br&gt;configure_data.py" style="rounded=0;whiteSpace=wrap;html=1;" vertex="1" parent="1">
          <mxGeometry x="640" y="120" width="240" height="60" as="geometry" />
        </mxCell>
        <mxCell id="_qyNYfjBGTc0N9jYAM-_-9" value="solutions/antllm/antllm/data/&lt;br&gt;data_utils.py" style="rounded=0;whiteSpace=wrap;html=1;" vertex="1" parent="1">
          <mxGeometry x="640" y="260" width="240" height="60" as="geometry" />
        </mxCell>
        <mxCell id="_qyNYfjBGTc0N9jYAM-_-11" value="make_dataset" style="text;html=1;align=center;verticalAlign=middle;resizable=0;points=[];autosize=1;strokeColor=none;fillColor=none;" vertex="1" parent="1">
          <mxGeometry x="760" y="205" width="100" height="30" as="geometry" />
        </mxCell>
        <mxCell id="_qyNYfjBGTc0N9jYAM-_-12" value="apply" style="text;html=1;align=center;verticalAlign=middle;resizable=0;points=[];autosize=1;strokeColor=none;fillColor=none;" vertex="1" parent="1">
          <mxGeometry x="570" y="120" width="50" height="30" as="geometry" />
        </mxCell>
      </root>
    </mxGraphModel>
  </diagram>
</mxfile>
